# Blender v2.66 (sub 1) OBJ File: 'reroutePowerBoard_cell.blend'
# www.blender.org
mtllib reroutePowerBoard_cell.mtl
o Plane.000_Plane.004
v 0.000000 -0.076200 0.000000
v 0.000000 -0.074736 -0.014866
v 0.000000 -0.074736 0.014866
v 0.000000 -0.070400 0.029160
v 0.000000 -0.070400 -0.029160
v 0.000000 -0.063358 -0.042334
v 0.000000 -0.063358 0.042334
v 0.000000 -0.053882 0.053882
v 0.000000 -0.042334 0.063358
v 0.000000 -0.029160 0.070400
v 0.000000 -0.053882 -0.053882
v 0.000000 -0.014866 0.074736
v 0.000000 0.000000 0.076200
v 0.000000 0.014866 0.074736
v 0.000000 0.029161 0.070400
v 0.000000 0.042334 0.063358
v 0.000000 0.053882 0.053881
v 0.000000 0.063358 0.042334
v 0.000000 0.070400 0.029160
v 0.000000 0.074736 0.014866
v 0.000000 -0.042334 -0.063358
v 0.000000 0.076200 -0.000000
v 0.000000 0.074736 -0.014866
v 0.000000 0.070400 -0.029161
v 0.000000 0.063358 -0.042334
v 0.000000 0.053882 -0.053882
v 0.000000 0.042334 -0.063358
v 0.000000 0.029160 -0.070400
v 0.000000 0.014866 -0.074736
v 0.000000 -0.000000 -0.076200
v 0.000000 -0.014866 -0.074736
v 0.000000 -0.029160 -0.070400
v 0.000000 -0.214689 -0.000000
v -0.000000 -0.211761 -0.029732
v 0.000000 -0.211761 0.029732
v 0.000000 -0.203089 0.058321
v -0.000000 -0.203089 -0.058321
v -0.000000 -0.189005 -0.084669
v 0.000000 -0.189005 0.084669
v 0.000000 -0.107763 0.107763
v 0.000000 -0.084669 0.503965
v 0.000000 -0.058321 0.518049
v -0.000000 -0.107763 -0.107763
v 0.000000 -0.029732 0.526721
v 0.000000 0.000000 0.529649
v 0.000000 0.029732 0.526721
v 0.000000 0.058321 0.518049
v 0.000000 0.084669 0.503965
v 0.000000 0.107763 0.107763
v 0.000000 0.189005 0.084669
v 0.000000 0.203089 0.058321
v 0.000000 0.211761 0.029731
v -0.000000 -0.084669 -0.126716
v 0.000000 0.214689 -0.000000
v -0.000000 0.211761 -0.029732
v -0.000000 0.203089 -0.058321
v -0.000000 0.189005 -0.084669
v -0.000000 0.107763 -0.107763
v -0.000000 0.084669 -0.126716
v -0.000000 0.058321 -0.140799
v -0.000000 0.029732 -0.149472
v -0.000000 -0.000000 -0.152400
v -0.000000 -0.029732 -0.149472
v -0.000000 -0.058321 -0.140799
vn -1.000000 -0.000001 0.000003
vn -1.000000 -0.000001 0.000001
vn -1.000000 -0.000002 0.000003
vn -1.000000 -0.000001 -0.000000
vn -1.000000 0.000000 -0.000000
vn -1.000000 0.000001 0.000003
vn -1.000000 0.000000 0.000003
vn -1.000000 0.000001 -0.000000
vn -1.000000 0.000001 0.000001
vn -1.000000 0.000001 0.000002
vn -1.000000 0.000002 0.000003
vn -1.000000 -0.000001 0.000002
vn -1.000000 -0.000003 -0.000000
vn -1.000000 0.000001 -0.000002
vn -1.000000 -0.000001 -0.000002
vn -1.000000 0.000003 -0.000000
usemtl Material.002
s off
f 29//1 28//1 61//1
f 22//2 20//2 54//2
f 27//3 26//3 59//3
f 19//4 18//4 51//4
f 25//2 24//2 56//2
f 12//5 10//5 44//5
f 17//4 16//4 48//4
f 20//4 19//4 52//4
f 13//5 12//5 45//5
f 21//6 32//6 64//6
f 31//7 30//7 63//7
f 15//5 14//5 46//5
f 8//8 7//8 39//8
f 5//9 6//9 37//9
f 28//1 27//1 60//1
f 18//4 17//4 50//4
f 16//4 15//4 47//4
f 2//9 5//9 34//9
f 23//2 22//2 54//2
f 6//10 11//10 38//10
f 11//11 21//11 53//11
f 7//8 4//8 36//8
f 3//9 1//9 33//9
f 9//8 8//8 41//8
f 24//2 23//2 55//2
f 32//6 31//6 64//6
f 1//9 2//9 33//9
f 10//8 9//8 42//8
f 30//7 29//7 62//7
f 14//5 13//5 45//5
f 26//12 25//12 57//12
f 4//8 3//8 35//8
f 28//1 60//1 61//1
f 20//2 52//2 54//2
f 26//1 58//1 59//1
f 18//4 50//4 51//4
f 57//12 25//12 56//12
f 10//5 42//5 44//5
f 49//13 17//13 48//13
f 19//4 51//4 52//4
f 12//5 44//5 45//5
f 53//11 21//11 64//11
f 30//7 62//7 63//7
f 47//5 15//5 46//5
f 40//14 8//14 39//14
f 6//10 38//10 37//10
f 27//3 59//3 60//3
f 17//15 49//15 50//15
f 48//5 16//5 47//5
f 5//8 37//8 34//8
f 55//2 23//2 54//2
f 11//6 43//6 38//6
f 43//6 11//6 53//6
f 39//8 7//8 36//8
f 35//9 3//9 33//9
f 8//16 40//16 41//16
f 56//4 24//4 55//4
f 31//6 63//6 64//6
f 2//9 34//9 33//9
f 9//5 41//5 42//5
f 29//7 61//7 62//7
f 46//5 14//5 45//5
f 58//1 26//1 57//1
f 36//8 4//8 35//8
o Plane.001
v 0.000000 -0.076200 0.000000
v 0.000000 -0.074736 -0.014866
v 0.000000 -0.074736 0.014866
v 0.000000 -0.070400 0.029160
v 0.000000 -0.070400 -0.029160
v 0.000000 -0.063358 -0.042334
v 0.000000 -0.063358 0.042334
v 0.000000 -0.053882 0.053882
v 0.000000 -0.042334 0.063358
v 0.000000 -0.029160 0.070400
v 0.000000 -0.053882 -0.053882
v 0.000000 -0.014866 0.074736
v 0.000000 0.000000 0.076200
v 0.000000 0.014866 0.074736
v 0.000000 0.029161 0.070400
v 0.000000 0.042334 0.063358
v 0.000000 0.053882 0.053881
v 0.000000 0.063358 0.042334
v 0.000000 0.070400 0.029160
v 0.000000 0.074736 0.014866
v 0.000000 -0.042334 -0.063358
v 0.000000 0.076200 -0.000000
v 0.000000 0.074736 -0.014866
v 0.000000 0.070400 -0.029161
v 0.000000 0.063358 -0.042334
v 0.000000 0.053882 -0.053882
v 0.000000 0.042334 -0.063358
v 0.000000 0.029160 -0.070400
v 0.000000 0.014866 -0.074736
v 0.000000 -0.000000 -0.076200
v 0.000000 -0.014866 -0.074736
v 0.000000 -0.029160 -0.070400
v 0.000000 0.000000 0.000000
vn 1.000000 0.000003 -0.000001
vn 1.000000 -0.000003 -0.000001
vn 1.000000 0.000002 -0.000002
vn 1.000000 0.000001 0.000002
vn 1.000000 0.000002 0.000001
vn 1.000000 -0.000002 0.000000
vn 1.000000 0.000002 -0.000003
vn 1.000000 -0.000002 0.000001
vn 1.000000 -0.000001 -0.000003
vn 1.000000 0.000001 -0.000003
vn 1.000000 -0.000000 0.000002
vn 1.000000 -0.000000 -0.000003
vn 1.000000 0.000003 -0.000000
vn 1.000000 0.000002 -0.000001
vn 1.000000 -0.000003 -0.000000
vn 1.000000 -0.000001 0.000002
vn 1.000000 -0.000002 -0.000003
vn 1.000000 -0.000002 -0.000001
vn 1.000000 -0.000002 -0.000002
vn 1.000000 0.000002 0.000000
usemtl Material.003
s off
f 67//17 65//17 97//17
f 86//18 84//18 97//18
f 72//19 71//19 97//19
f 96//20 95//20 97//20
f 70//21 75//21 97//21
f 88//22 87//22 97//22
f 75//21 85//21 97//21
f 73//23 72//23 97//23
f 71//19 68//19 97//19
f 89//24 88//24 97//24
f 79//25 78//25 97//25
f 91//24 90//24 97//24
f 76//26 74//26 97//26
f 85//20 96//20 97//20
f 94//27 93//27 97//27
f 78//28 77//28 97//28
f 65//29 66//29 97//29
f 68//30 67//30 97//30
f 87//31 86//31 97//31
f 90//24 89//24 97//24
f 93//32 92//32 97//32
f 81//33 80//33 97//33
f 84//34 83//34 97//34
f 83//35 82//35 97//35
f 66//36 69//36 97//36
f 74//26 73//26 97//26
f 80//25 79//25 97//25
f 82//35 81//35 97//35
f 92//32 91//32 97//32
f 69//21 70//21 97//21
f 95//27 94//27 97//27
f 77//28 76//28 97//28
