# Blender v2.66 (sub 1) OBJ File: 'shooter2014v3.blend'
# www.blender.org
mtllib shooter2014v3.mtl
o BezierCircle.002_BezierCircle.003
v 0.001270 0.000000 0.237623
v 0.001270 0.039694 0.237579
v 0.001270 0.080807 0.237077
v 0.001270 0.122413 0.235565
v 0.001270 0.163581 0.232489
v 0.001270 0.203383 0.227297
v 0.001270 0.240891 0.219435
v 0.001270 0.275176 0.208350
v 0.001270 0.305310 0.193489
v 0.001270 0.330364 0.174298
v 0.001270 0.349409 0.150226
v 0.001270 0.361518 0.120719
v 0.001270 0.365760 0.085223
v 0.001270 0.361518 0.049728
v 0.001270 0.349409 0.020220
v 0.001270 0.330364 -0.003852
v 0.001270 0.305310 -0.023042
v 0.001270 0.275177 -0.037903
v 0.001270 0.240891 -0.048988
v 0.001270 0.203383 -0.056850
v 0.001270 0.163581 -0.062043
v 0.001270 0.122413 -0.065118
v 0.001270 0.080807 -0.066631
v 0.001270 0.039694 -0.067132
v 0.001270 0.000000 -0.067177
v 0.001270 -0.039694 -0.067132
v 0.001270 -0.080807 -0.066631
v 0.001270 -0.122413 -0.065118
v 0.001270 -0.163581 -0.062043
v 0.001270 -0.203383 -0.056850
v 0.001270 -0.240891 -0.048988
v 0.001270 -0.275176 -0.037903
v 0.001270 -0.305310 -0.023042
v 0.001270 -0.330364 -0.003852
v 0.001270 -0.349409 0.020220
v 0.001270 -0.361518 0.049728
v 0.001270 -0.365760 0.085223
v 0.001270 -0.361518 0.120719
v 0.001270 -0.349409 0.150226
v 0.001270 -0.330364 0.174298
v 0.001270 -0.305310 0.193489
v 0.001270 -0.275177 0.208350
v 0.001270 -0.240891 0.219435
v 0.001270 -0.203383 0.227297
v 0.001270 -0.163581 0.232489
v 0.001270 -0.122413 0.235565
v 0.001270 -0.080807 0.237077
v 0.001270 -0.039694 0.237579
vn 1.000000 0.000000 -0.000001
usemtl None
s off
f 12//1 14//1 13//1
f 12//1 15//1 14//1
f 11//1 15//1 12//1
f 11//1 16//1 15//1
f 10//1 16//1 11//1
f 10//1 17//1 16//1
f 9//1 17//1 10//1
f 9//1 18//1 17//1
f 8//1 18//1 9//1
f 8//1 19//1 18//1
f 7//1 19//1 8//1
f 7//1 20//1 19//1
f 6//1 20//1 7//1
f 6//1 21//1 20//1
f 5//1 21//1 6//1
f 5//1 22//1 21//1
f 4//1 22//1 5//1
f 4//1 23//1 22//1
f 3//1 23//1 4//1
f 3//1 24//1 23//1
f 2//1 24//1 3//1
f 2//1 25//1 24//1
f 1//1 25//1 2//1
f 48//1 25//1 1//1
f 48//1 26//1 25//1
f 48//1 27//1 26//1
f 47//1 27//1 48//1
f 47//1 28//1 27//1
f 46//1 28//1 47//1
f 46//1 29//1 28//1
f 45//1 29//1 46//1
f 45//1 30//1 29//1
f 44//1 30//1 45//1
f 44//1 31//1 30//1
f 43//1 31//1 44//1
f 43//1 32//1 31//1
f 42//1 32//1 43//1
f 42//1 33//1 32//1
f 41//1 33//1 42//1
f 41//1 34//1 33//1
f 40//1 34//1 41//1
f 40//1 35//1 34//1
f 39//1 35//1 40//1
f 39//1 36//1 35//1
f 38//1 36//1 39//1
f 38//1 37//1 36//1
o BezierCircle.001
v 0.002540 0.000000 0.324795
v 0.002540 0.032500 0.322607
v 0.002540 0.063674 0.316234
v 0.002540 0.093236 0.305963
v 0.002540 0.120899 0.292078
v 0.002540 0.146379 0.274865
v 0.002540 0.169388 0.254612
v 0.002540 0.189642 0.231602
v 0.002540 0.206854 0.206123
v 0.002540 0.220739 0.178459
v 0.002540 0.231011 0.148898
v 0.002540 0.237384 0.117724
v 0.002540 0.239571 0.085223
v 0.002540 0.237384 0.052723
v 0.002540 0.231011 0.021549
v 0.002540 0.220739 -0.008012
v 0.002540 0.206854 -0.035676
v 0.002540 0.189642 -0.061155
v 0.002540 0.169388 -0.084165
v 0.002540 0.146379 -0.104419
v 0.002540 0.120899 -0.121631
v 0.002540 0.093236 -0.135516
v 0.002540 0.063674 -0.145788
v 0.002540 0.032500 -0.152160
v 0.002540 0.000000 -0.154348
v 0.002540 -0.032500 -0.152160
v 0.002540 -0.063674 -0.145788
v 0.002540 -0.093236 -0.135516
v 0.002540 -0.120899 -0.121631
v 0.002540 -0.146379 -0.104419
v 0.002540 -0.169388 -0.084165
v 0.002540 -0.189642 -0.061155
v 0.002540 -0.206854 -0.035676
v 0.002540 -0.220739 -0.008013
v 0.002540 -0.231011 0.021549
v 0.002540 -0.237384 0.052723
v 0.002540 -0.239571 0.085223
v 0.002540 -0.237384 0.117724
v 0.002540 -0.231011 0.148898
v 0.002540 -0.220739 0.178459
v 0.002540 -0.206854 0.206123
v 0.002540 -0.189642 0.231602
v 0.002540 -0.169388 0.254611
v 0.002540 -0.146379 0.274865
v 0.002540 -0.120899 0.292078
v 0.002540 -0.093236 0.305963
v 0.002540 -0.063674 0.316234
v 0.002540 -0.032500 0.322607
usemtl Material.002
s off
f 60//1 62//1 61//1
f 60//1 63//1 62//1
f 59//1 63//1 60//1
f 59//1 64//1 63//1
f 58//1 64//1 59//1
f 58//1 65//1 64//1
f 57//1 65//1 58//1
f 57//1 66//1 65//1
f 56//1 66//1 57//1
f 56//1 67//1 66//1
f 55//1 67//1 56//1
f 55//1 68//1 67//1
f 54//1 68//1 55//1
f 54//1 69//1 68//1
f 53//1 69//1 54//1
f 53//1 70//1 69//1
f 52//1 70//1 53//1
f 52//1 71//1 70//1
f 51//1 71//1 52//1
f 51//1 72//1 71//1
f 50//1 72//1 51//1
f 49//1 72//1 50//1
f 49//1 73//1 72//1
f 96//1 73//1 49//1
f 96//1 74//1 73//1
f 95//1 74//1 96//1
f 95//1 75//1 74//1
f 95//1 76//1 75//1
f 94//1 76//1 95//1
f 94//1 77//1 76//1
f 93//1 77//1 94//1
f 93//1 78//1 77//1
f 92//1 78//1 93//1
f 92//1 79//1 78//1
f 91//1 79//1 92//1
f 91//1 80//1 79//1
f 90//1 80//1 91//1
f 90//1 81//1 80//1
f 89//1 81//1 90//1
f 89//1 82//1 81//1
f 88//1 82//1 89//1
f 88//1 83//1 82//1
f 87//1 83//1 88//1
f 87//1 84//1 83//1
f 86//1 84//1 87//1
f 86//1 85//1 84//1
o BezierCircle
v 0.000000 0.609600 0.609600
v -0.000000 0.609600 -0.609600
v -0.000000 -0.609600 -0.609600
v 0.000000 -0.609600 0.609600
v -0.000000 -0.304800 -0.152400
v -0.000000 -0.284125 -0.153792
v -0.000000 -0.264295 -0.157846
v -0.000000 -0.245489 -0.164380
v -0.000000 -0.227892 -0.173212
v -0.000000 -0.211683 -0.184162
v -0.000000 -0.197046 -0.197046
v -0.000000 -0.184162 -0.211683
v -0.000000 -0.173213 -0.227891
v -0.000000 -0.164380 -0.245489
v -0.000000 -0.157846 -0.264294
v -0.000000 -0.153792 -0.284125
v -0.000000 -0.152400 -0.304799
v -0.000000 -0.153792 -0.325474
v -0.000000 -0.157845 -0.345305
v -0.000000 -0.164380 -0.364110
v -0.000000 -0.173212 -0.381708
v -0.000000 -0.184162 -0.397917
v -0.000000 -0.197046 -0.412554
v -0.000000 -0.211683 -0.425438
v -0.000000 -0.227891 -0.436388
v -0.000000 -0.245489 -0.445221
v -0.000000 -0.264294 -0.451755
v -0.000000 -0.284125 -0.455809
v -0.000000 -0.304800 -0.457200
v -0.000000 -0.325475 -0.455809
v -0.000000 -0.345306 -0.451755
v -0.000000 -0.364111 -0.445221
v -0.000000 -0.381709 -0.436388
v -0.000000 -0.397917 -0.425438
v -0.000000 -0.412554 -0.412554
v -0.000000 -0.425438 -0.397917
v -0.000000 -0.436388 -0.381708
v -0.000000 -0.445220 -0.364110
v -0.000000 -0.451755 -0.345305
v -0.000000 -0.455808 -0.325474
v -0.000000 -0.457200 -0.304799
v -0.000000 -0.455808 -0.284125
v -0.000000 -0.451754 -0.264294
v -0.000000 -0.445220 -0.245489
v -0.000000 -0.436387 -0.227891
v -0.000000 -0.425438 -0.211683
v -0.000000 -0.412554 -0.197046
v -0.000000 -0.397917 -0.184162
v -0.000000 -0.381708 -0.173212
v -0.000000 -0.364111 -0.164380
v -0.000000 -0.345306 -0.157846
v -0.000000 -0.325475 -0.153792
v -0.000000 0.304800 -0.152400
v -0.000000 0.325475 -0.153792
v -0.000000 0.345306 -0.157846
v -0.000000 0.364111 -0.164380
v -0.000000 0.381708 -0.173212
v -0.000000 0.397917 -0.184162
v -0.000000 0.412554 -0.197046
v -0.000000 0.425438 -0.211683
v -0.000000 0.436388 -0.227892
v -0.000000 0.445220 -0.245489
v -0.000000 0.451754 -0.264295
v -0.000000 0.455808 -0.284125
v -0.000000 0.457200 -0.304800
v -0.000000 0.455808 -0.325475
v -0.000000 0.451754 -0.345306
v -0.000000 0.445220 -0.364111
v -0.000000 0.436388 -0.381708
v -0.000000 0.425438 -0.397917
v -0.000000 0.412554 -0.412554
v -0.000000 0.397917 -0.425438
v -0.000000 0.381708 -0.436388
v -0.000000 0.364111 -0.445220
v -0.000000 0.345306 -0.451754
v -0.000000 0.325475 -0.455808
v -0.000000 0.304800 -0.457200
v -0.000000 0.284125 -0.455808
v -0.000000 0.264294 -0.451754
v -0.000000 0.245489 -0.445220
v -0.000000 0.227892 -0.436388
v -0.000000 0.211683 -0.425438
v -0.000000 0.197046 -0.412554
v -0.000000 0.184162 -0.397917
v -0.000000 0.173212 -0.381708
v -0.000000 0.164380 -0.364111
v -0.000000 0.157846 -0.345306
v -0.000000 0.153792 -0.325475
v -0.000000 0.152400 -0.304800
v -0.000000 0.153792 -0.284125
v -0.000000 0.157846 -0.264294
v -0.000000 0.164380 -0.245489
v -0.000000 0.173212 -0.227892
v -0.000000 0.184162 -0.211683
v -0.000000 0.197046 -0.197046
v -0.000000 0.211683 -0.184162
v -0.000000 0.227892 -0.173212
v -0.000000 0.245489 -0.164380
v -0.000000 0.264294 -0.157846
v -0.000000 0.284125 -0.153792
v 0.000000 -0.203200 0.546100
v 0.000000 -0.191140 0.545288
v 0.000000 -0.179572 0.542923
v 0.000000 -0.168602 0.539112
v 0.000000 -0.158337 0.533959
v 0.000000 -0.148882 0.527572
v 0.000000 -0.140343 0.520057
v 0.000000 -0.132828 0.511518
v 0.000000 -0.126441 0.502063
v 0.000000 -0.121288 0.491798
v 0.000000 -0.117477 0.480828
v 0.000000 -0.115112 0.469260
v 0.000000 -0.114300 0.457200
v 0.000000 -0.115112 0.445140
v 0.000000 -0.117477 0.433572
v 0.000000 -0.121288 0.422602
v 0.000000 -0.126441 0.412337
v 0.000000 -0.132828 0.402882
v 0.000000 -0.140343 0.394343
v 0.000000 -0.148882 0.386828
v 0.000000 -0.158337 0.380441
v 0.000000 -0.168602 0.375288
v 0.000000 -0.179572 0.371477
v 0.000000 -0.191140 0.369112
v 0.000000 -0.203200 0.368300
v 0.000000 -0.215216 0.368986
v 0.000000 -0.226669 0.371019
v 0.000000 -0.237475 0.374362
v 0.000000 -0.247552 0.378977
v 0.000000 -0.256820 0.384827
v 0.000000 -0.265194 0.391874
v 0.000000 -0.272594 0.400081
v 0.000000 -0.278938 0.409410
v 0.000000 -0.284142 0.419824
v 0.000000 -0.288125 0.431285
v 0.000000 -0.290805 0.443757
v 0.000000 -0.292100 0.457200
v 0.000000 -0.291771 0.470643
v 0.000000 -0.289722 0.483115
v 0.000000 -0.286082 0.494576
v 0.000000 -0.280981 0.504990
v 0.000000 -0.274550 0.514319
v 0.000000 -0.266919 0.522526
v 0.000000 -0.258217 0.529573
v 0.000000 -0.248574 0.535423
v 0.000000 -0.238121 0.540038
v 0.000000 -0.226988 0.543381
v 0.000000 -0.215304 0.545414
v 0.000000 0.457200 0.381000
v 0.000000 0.469260 0.380188
v 0.000000 0.480828 0.377824
v 0.000000 0.491798 0.374012
v 0.000000 0.502063 0.368859
v 0.000000 0.511518 0.362472
v 0.000000 0.520057 0.354957
v 0.000000 0.527572 0.346418
v 0.000000 0.533959 0.336963
v 0.000000 0.539112 0.326698
v 0.000000 0.542923 0.315728
v 0.000000 0.545288 0.304160
v 0.000000 0.546100 0.292100
v 0.000000 0.545288 0.280040
v 0.000000 0.542923 0.268472
v 0.000000 0.539112 0.257502
v 0.000000 0.533959 0.247237
v 0.000000 0.527572 0.237782
v 0.000000 0.520057 0.229244
v 0.000000 0.511518 0.221728
v 0.000000 0.502063 0.215341
v 0.000000 0.491798 0.210188
v 0.000000 0.480828 0.206377
v 0.000000 0.469260 0.204012
v 0.000000 0.457200 0.203200
v 0.000000 0.445184 0.203886
v 0.000000 0.433731 0.205919
v 0.000000 0.422925 0.209262
v 0.000000 0.412848 0.213877
v 0.000000 0.403580 0.219727
v 0.000000 0.395206 0.226774
v 0.000000 0.387806 0.234981
v 0.000000 0.381462 0.244310
v 0.000000 0.376258 0.254724
v 0.000000 0.372275 0.266185
v 0.000000 0.369595 0.278657
v 0.000000 0.368300 0.292100
v 0.000000 0.368629 0.305544
v 0.000000 0.370678 0.318015
v 0.000000 0.374318 0.329476
v 0.000000 0.379419 0.339890
v 0.000000 0.385850 0.349219
v 0.000000 0.393481 0.357426
v 0.000000 0.402183 0.364473
v 0.000000 0.411826 0.370323
v 0.000000 0.422279 0.374938
v 0.000000 0.433412 0.378281
v 0.000000 0.445096 0.380314
usemtl Material.001
s off
f 100//1 198//1 97//1
f 198//1 199//1 97//1
f 199//1 247//1 97//1
f 247//1 248//1 97//1
f 248//1 249//1 97//1
f 249//1 250//1 97//1
f 250//1 251//1 97//1
f 251//1 252//1 97//1
f 252//1 253//1 97//1
f 253//1 254//1 97//1
f 254//1 255//1 97//1
f 255//1 256//1 97//1
f 256//1 98//1 97//1
f 256//1 257//1 98//1
f 257//1 258//1 98//1
f 258//1 162//1 98//1
f 162//1 163//1 98//1
f 163//1 164//1 98//1
f 164//1 165//1 98//1
f 165//1 166//1 98//1
f 166//1 167//1 98//1
f 167//1 168//1 98//1
f 168//1 169//1 98//1
f 169//1 170//1 98//1
f 170//1 171//1 98//1
f 171//1 172//1 98//1
f 172//1 99//1 98//1
f 259//1 162//1 258//1
f 260//1 162//1 259//1
f 261//1 162//1 260//1
f 262//1 162//1 261//1
f 263//1 162//1 262//1
f 264//1 162//1 263//1
f 265//1 162//1 264//1
f 266//1 161//1 265//1
f 161//1 162//1 265//1
f 267//1 161//1 266//1
f 268//1 161//1 267//1
f 199//1 246//1 247//1
f 269//1 161//1 268//1
f 199//1 245//1 246//1
f 199//1 292//1 245//1
f 270//1 161//1 269//1
f 270//1 160//1 161//1
f 270//1 159//1 160//1
f 270//1 158//1 159//1
f 270//1 157//1 158//1
f 271//1 157//1 270//1
f 199//1 291//1 292//1
f 271//1 156//1 157//1
f 272//1 156//1 271//1
f 199//1 290//1 291//1
f 272//1 155//1 156//1
f 273//1 155//1 272//1
f 199//1 289//1 290//1
f 274//1 155//1 273//1
f 274//1 154//1 155//1
f 199//1 288//1 289//1
f 275//1 154//1 274//1
f 199//1 287//1 288//1
f 275//1 153//1 154//1
f 276//1 153//1 275//1
f 199//1 286//1 287//1
f 277//1 153//1 276//1
f 199//1 200//1 286//1
f 200//1 285//1 286//1
f 277//1 152//1 153//1
f 278//1 152//1 277//1
f 200//1 284//1 285//1
f 279//1 152//1 278//1
f 200//1 283//1 284//1
f 280//1 152//1 279//1
f 200//1 282//1 283//1
f 281//1 152//1 280//1
f 200//1 281//1 282//1
f 200//1 201//1 281//1
f 201//1 202//1 281//1
f 202//1 203//1 281//1
f 203//1 204//1 281//1
f 204//1 152//1 281//1
f 204//1 151//1 152//1
f 204//1 150//1 151//1
f 204//1 205//1 150//1
f 205//1 149//1 150//1
f 173//1 99//1 172//1
f 205//1 196//1 149//1
f 174//1 99//1 173//1
f 205//1 195//1 196//1
f 175//1 99//1 174//1
f 205//1 194//1 195//1
f 176//1 99//1 175//1
f 205//1 193//1 194//1
f 177//1 99//1 176//1
f 205//1 206//1 193//1
f 206//1 192//1 193//1
f 178//1 99//1 177//1
f 206//1 191//1 192//1
f 179//1 99//1 178//1
f 206//1 190//1 191//1
f 180//1 99//1 179//1
f 206//1 189//1 190//1
f 181//1 99//1 180//1
f 206//1 188//1 189//1
f 182//1 99//1 181//1
f 206//1 187//1 188//1
f 183//1 99//1 182//1
f 206//1 186//1 187//1
f 184//1 99//1 183//1
f 206//1 207//1 186//1
f 207//1 185//1 186//1
f 185//1 99//1 184//1
f 207//1 208//1 185//1
f 208//1 209//1 185//1
f 209//1 113//1 185//1
f 113//1 114//1 185//1
f 114//1 115//1 185//1
f 115//1 116//1 185//1
f 116//1 117//1 185//1
f 117//1 118//1 185//1
f 118//1 119//1 185//1
f 119//1 120//1 185//1
f 120//1 121//1 185//1
f 121//1 122//1 185//1
f 122//1 99//1 185//1
f 210//1 113//1 209//1
f 211//1 113//1 210//1
f 212//1 113//1 211//1
f 213//1 113//1 212//1
f 214//1 113//1 213//1
f 215//1 113//1 214//1
f 216//1 113//1 215//1
f 217//1 113//1 216//1
f 217//1 112//1 113//1
f 217//1 111//1 112//1
f 217//1 110//1 111//1
f 218//1 110//1 217//1
f 218//1 109//1 110//1
f 219//1 109//1 218//1
f 219//1 108//1 109//1
f 220//1 108//1 219//1
f 220//1 107//1 108//1
f 221//1 107//1 220//1
f 100//1 197//1 198//1
f 221//1 106//1 107//1
f 100//1 244//1 197//1
f 222//1 106//1 221//1
f 222//1 105//1 106//1
f 223//1 105//1 222//1
f 100//1 243//1 244//1
f 224//1 105//1 223//1
f 100//1 242//1 243//1
f 224//1 104//1 105//1
f 225//1 104//1 224//1
f 100//1 241//1 242//1
f 123//1 99//1 122//1
f 225//1 103//1 104//1
f 226//1 103//1 225//1
f 100//1 240//1 241//1
f 227//1 103//1 226//1
f 100//1 239//1 240//1
f 124//1 99//1 123//1
f 227//1 102//1 103//1
f 228//1 102//1 227//1
f 100//1 238//1 239//1
f 229//1 102//1 228//1
f 100//1 237//1 238//1
f 230//1 102//1 229//1
f 100//1 236//1 237//1
f 125//1 99//1 124//1
f 230//1 101//1 102//1
f 231//1 101//1 230//1
f 100//1 235//1 236//1
f 232//1 101//1 231//1
f 100//1 234//1 235//1
f 233//1 101//1 232//1
f 100//1 233//1 234//1
f 100//1 101//1 233//1
f 100//1 148//1 101//1
f 126//1 99//1 125//1
f 100//1 147//1 148//1
f 127//1 99//1 126//1
f 100//1 146//1 147//1
f 128//1 99//1 127//1
f 100//1 145//1 146//1
f 129//1 99//1 128//1
f 100//1 144//1 145//1
f 130//1 99//1 129//1
f 100//1 143//1 144//1
f 131//1 99//1 130//1
f 100//1 142//1 143//1
f 132//1 99//1 131//1
f 100//1 141//1 142//1
f 133//1 99//1 132//1
f 100//1 140//1 141//1
f 134//1 99//1 133//1
f 100//1 139//1 140//1
f 135//1 99//1 134//1
f 100//1 138//1 139//1
f 136//1 99//1 135//1
f 100//1 137//1 138//1
f 137//1 99//1 136//1
f 100//1 99//1 137//1
